<svg width="149" height="115" viewBox="0 0 149 115" fill="none" xmlns="http://www.w3.org/2000/svg">
<path d="M133.184 0C102.385 19.1667 78.2458 43.3333 78.2458 75C78.2458 100.417 93.2291 115 115.704 115C134.017 115 149 102.917 149 84.5833C149 68.75 136.514 58.75 126.941 55.4167L109.461 71.6667C104.466 70.8333 98.2235 66.6667 98.2235 56.6667C98.2235 41.25 109.461 23.75 136.93 5.83333L133.184 0ZM54.9385 0C24.1397 19.1667 0 43.3333 0 75C0 100.417 14.9832 115 37.4581 115C55.7709 115 70.7542 102.917 70.7542 84.5833C70.7542 68.75 58.2682 58.75 48.6955 55.4167L31.2151 71.6667C26.2207 70.8333 19.9776 66.6667 19.9776 56.6667C19.9776 41.25 31.2151 23.75 58.6844 5.83333L54.9385 0Z" fill="#212121" fill-opacity="0.05"/>
</svg>
